<svg xmlns="http://www.w3.org/2000/svg" xmlns:xlink="http://www.w3.org/1999/xlink" viewBox="0 0 314.16 314.16"><defs><style>.a,.b{fill:#9f1212;}.a,.d,.e{stroke:#fff;}.a,.d,.e,.g{stroke-miterlimit:10;}.c{clip-path:url(#a);}.d,.h{fill:#fff;}.e,.g{fill:none;}.f{fill:#181b21;}.g{stroke:#000;}.h{font-size:60px;font-family:BradleyHandITCTT-Bold, Bradley Hand;font-weight:700;}.i{fill:#608c3e;}.j{fill:#ef3e2e;}.k{fill:#df2226;}.l{fill:#600c12;}</style><clipPath id="a" transform="translate(-92.99 -92.92)"><circle class="a" cx="250.07" cy="250" r="156.58"/></clipPath></defs><circle class="b" cx="157.08" cy="157.08" r="156.58"/><g class="c"><circle class="d" cx="157.08" cy="157.08" r="148.22"/></g><circle class="e" cx="157.08" cy="157.08" r="156.58"/><path class="f" d="M250.07,108.43A141.58,141.58,0,1,1,108.5,250,141.57,141.57,0,0,1,250.07,108.43Z" transform="translate(-92.99 -92.92)"/><path class="g" d="M391.64,250A141.57,141.57,0,1,1,250.07,108.43,141.57,141.57,0,0,1,391.64,250Z" transform="translate(-92.99 -92.92)"/><text class="h" transform="translate(38.54 149.16)">Mirchi</text><path class="i" d="M359.92,210.87a31.19,31.19,0,0,1-15.31-15.31c-5.32-11.37-10.65-23.17-18.87-25.83,0,0-6.36,2.84-8.17,8.16,0,0,11.07,2,13.91,12.17s-.54,21.48-.54,21.48Z" transform="translate(-92.99 -92.92)"/><path class="j" d="M187.84,353.12s13.68-5.51,25.23-1,48.53,12.1,80.11-.36,49.74-32.68,65.89-61.54,8.35-30.79,9.32-43.26,7.38-27.41-3.93-33.88S334.57,206,323,217s2.42,21.6-1.75,39.69-5.81,34.07-30.5,52.94-50.7,22-71.39,23.18-32.92,10.34-34.91,15.49S185.48,354.27,187.84,353.12Z" transform="translate(-92.99 -92.92)"/><path class="k" d="M289.43,353.06c-41.56,5.26-34.06-16.7-56.87-9.38-10.71,3.45-25.23-.67-38.54-4.24-5.39,3-8.66,6.3-9.62,8.78-2,5.14,1.08,6,3.38,4.9,0,0,13.68-5.51,25.23-1C224.21,356.32,258.76,363.59,289.43,353.06Z" transform="translate(-92.99 -92.92)"/><path class="k" d="M368.39,246.87c1-12.46,7.38-27.41-3.93-33.88a37.17,37.17,0,0,0-3.81-1.82c-6.9,2.85-14,8.23-10.41,18.27,6.41,17.73,9.38,33.53,1,39.88s-16.16,6.41-12.53,21.18c2.12,8.59-.78,26.62-11.85,41.2,12.88-11.07,22.87-24.87,32.18-41.57C375.29,261.27,367.42,259.33,368.39,246.87Z" transform="translate(-92.99 -92.92)"/><path class="l" d="M254.34,360.74c-19.3,0-35.64-4.11-42.05-6.59-10.23-3.94-22.51.6-23.54,1a5,5,0,0,1-5.69-.49c-1.15-1.09-2.23-3.21-.66-7.26,2.42-6.29,15.49-15.67,36.85-16.88,22.81-1.33,47.13-5,70.18-22.69,22-16.82,25.05-30.86,28.62-47.13.3-1.52.67-3,1-4.54,1.69-7.44.12-13.62-1.33-19.12-1.94-7.5-3.81-14.64,3.69-21.72,12.65-11.86,32.19-11.08,44.17-4.24,10,5.69,8.05,17.06,6.29,27-.54,3-1,6.05-1.27,8.89a33.8,33.8,0,0,0,.49,8c1,7.08,2.11,14.4-10.11,36.18-18.45,32.92-37.88,51.07-67,62.56C280.84,359,266.92,360.74,254.34,360.74ZM202.91,348.1a30.49,30.49,0,0,1,11,1.87c12.83,4.9,48.89,11.32,78.48-.36,28.13-11.07,46.89-28.62,64.8-60.57,11.43-20.45,10.53-26.74,9.56-33.34a41.16,41.16,0,0,1-.55-9c.25-3,.79-6.23,1.33-9.32,2-11.37,2.67-18.57-4.11-22.45-10.77-6.11-28.26-6.41-38.9,3.63-5.57,5.27-4.36,10-2.49,17.37,1.58,6,3.33,12.77,1.34,21.24-.37,1.51-.67,3-1,4.47-3.63,16.4-7.08,31.89-30.26,49.74-24,18.39-49.07,22.2-72.6,23.6-19.91,1.15-31.28,9.74-33,14.09a4.5,4.5,0,0,0-.48,2.3,1.88,1.88,0,0,0,.79-.24.22.22,0,0,1,.18-.06A47.63,47.63,0,0,1,202.91,348.1Z" transform="translate(-92.99 -92.92)"/><path class="l" d="M359.14,212.93a33.19,33.19,0,0,1-16.46-16.4l-.37-.79c-4.71-10.16-9.62-20.69-16.39-23.59a16.28,16.28,0,0,0-5.15,4.35c3.88,1.39,10.59,4.84,12.89,12.95,3,10.71-.42,22.21-.54,22.69l-4.24-1.27c.06-.12,3.21-10.77.55-20.21-2.48-8.71-11.8-10.53-12.23-10.59a2.12,2.12,0,0,1-1.51-1.09,2.37,2.37,0,0,1-.18-1.81c2.12-6.17,9.08-9.38,9.38-9.5a2,2,0,0,1,1.57-.06c9,3,14.52,14.76,19.85,26.26l.36.78a29.26,29.26,0,0,0,14.1,14.16Z" transform="translate(-92.99 -92.92)"/></svg>